<?xml version="1.0" encoding="UTF-8"?><svg xmlns="http://www.w3.org/2000/svg" viewBox="0 0 102.36 67.07"><defs><style>.d{fill:#3a4145;}</style></defs><g id="a"/><g id="b"><g id="c"><path class="d" d="M101.27,1.67c-.89-1.06-2.24-1.67-3.7-1.67H28.38c-2.85,0-5.48,2.22-5.98,5.06l-.04,.2H4.8c-1.46,0-2.81,.61-3.7,1.67C.19,8.01-.18,9.47,.08,10.94L9.09,62c.5,2.84,3.13,5.06,5.98,5.06H87.28c1.46,0,2.81-.61,3.7-1.67,.55-.66,.9-1.45,1.03-2.31h.03L102.28,5.69c.26-1.47-.11-2.94-1.01-4.01Zm-13.03,61.42c-.22,.26-.55,.39-.96,.39H15.07c-1.11,0-2.25-.98-2.45-2.1L3.61,10.32c-.08-.43,0-.82,.23-1.09,.22-.26,.55-.39,.96-.39H25.61c1.11,0,2.25,.98,2.45,2.1l.39,2.19c.5,2.84,3.13,5.07,5.98,5.07h44.24c1.11,0,2.25,.98,2.45,2.1l7.35,41.7c.08,.43,0,.82-.23,1.09ZM98.75,5.06l-8.39,47.05-5.72-32.43c-.5-2.84-3.13-5.07-5.98-5.07H34.43c-1.11,0-2.25-.98-2.45-2.1l-.39-2.19c-.47-2.69-2.86-4.83-5.54-5.04,.37-.94,1.36-1.69,2.33-1.69H97.57c.41,0,.74,.14,.96,.39,.23,.27,.31,.65,.23,1.08Z"/></g></g></svg>