<?xml version="1.0" encoding="UTF-8"?><svg xmlns="http://www.w3.org/2000/svg" viewBox="0 0 130.88 40"><defs><style>.d{fill:#fff;}.e{stroke-width:.92px;}.e,.f,.g{fill:none;stroke:#000;stroke-linecap:round;stroke-linejoin:round;}.h{fill:#3687c1;}.f{stroke-width:1.01px;}.g{stroke-width:2.02px;}</style></defs><g id="a"/><g id="b"><g id="c"><g><g><path d="M46.74,13.7v3.87h-2.26V6.59h4.28c.82,0,1.55,.15,2.17,.45,.63,.3,1.11,.73,1.44,1.28s.5,1.19,.5,1.89c0,1.07-.37,1.92-1.1,2.54-.74,.62-1.75,.93-3.06,.93h-1.98Zm0-1.83h2.02c.6,0,1.05-.14,1.37-.42,.31-.28,.47-.68,.47-1.21s-.16-.97-.47-1.3c-.32-.33-.75-.5-1.31-.51h-2.07v3.44Z"/><path d="M58.87,11.45c-.3-.04-.56-.06-.78-.06-.82,0-1.36,.28-1.62,.84v5.33h-2.18V9.41h2.06l.06,.97c.44-.75,1.04-1.12,1.82-1.12,.24,0,.47,.03,.68,.1l-.03,2.09Z"/><path d="M59.31,13.41c0-.81,.16-1.53,.47-2.16,.31-.63,.76-1.12,1.34-1.47,.59-.35,1.26-.52,2.04-.52,1.1,0,2,.34,2.69,1.01,.7,.67,1.08,1.59,1.16,2.74l.02,.56c0,1.25-.35,2.25-1.05,3.01-.7,.76-1.63,1.13-2.81,1.13s-2.11-.38-2.81-1.13c-.7-.75-1.05-1.78-1.05-3.07v-.1Zm2.18,.15c0,.77,.15,1.37,.44,1.78,.29,.41,.71,.61,1.25,.61s.94-.2,1.24-.61c.3-.41,.44-1.05,.44-1.94,0-.76-.15-1.35-.44-1.77-.3-.42-.71-.63-1.25-.63s-.94,.21-1.24,.62c-.29,.42-.44,1.06-.44,1.93Z"/><path d="M70.68,9.41v8.6c0,.9-.24,1.6-.72,2.1-.48,.5-1.17,.75-2.06,.75-.38,0-.74-.04-1.08-.13v-1.73c.26,.05,.49,.07,.69,.07,.66,0,.99-.35,.99-1.05V9.41h2.18Zm-2.36-2.11c0-.33,.11-.6,.33-.81,.22-.21,.52-.32,.89-.32s.67,.11,.89,.32c.22,.21,.33,.48,.33,.81s-.11,.6-.34,.81-.52,.32-.89,.32-.66-.11-.89-.32c-.22-.21-.34-.48-.34-.81Z"/><path d="M76.13,17.71c-1.2,0-2.17-.37-2.92-1.1-.75-.73-1.13-1.71-1.13-2.93v-.21c0-.82,.16-1.55,.47-2.2,.32-.65,.76-1.14,1.34-1.49s1.24-.52,1.99-.52c1.12,0,1.99,.35,2.63,1.05,.64,.7,.96,1.7,.96,2.99v.89h-5.19c.07,.53,.28,.96,.64,1.28,.35,.32,.8,.48,1.34,.48,.84,0,1.49-.3,1.97-.91l1.07,1.2c-.33,.46-.77,.82-1.33,1.08s-1.18,.39-1.85,.39Zm-.25-6.7c-.43,0-.78,.15-1.05,.44-.27,.29-.44,.71-.52,1.26h3.03v-.17c-.01-.48-.14-.86-.39-1.12-.25-.26-.61-.4-1.07-.4Z"/><path d="M83.33,7.41v2h1.39v1.6h-1.39v4.07c0,.3,.06,.52,.17,.65,.12,.13,.34,.2,.66,.2,.24,0,.45-.02,.64-.05v1.65c-.43,.13-.87,.2-1.32,.2-1.53,0-2.31-.77-2.34-2.31v-4.39h-1.19v-1.6h1.19v-2h2.18Z"/><path d="M85.37,13.41c0-.81,.16-1.53,.47-2.16,.31-.63,.76-1.12,1.34-1.47,.59-.35,1.26-.52,2.04-.52,1.1,0,2,.34,2.69,1.01,.7,.67,1.08,1.59,1.16,2.74l.02,.56c0,1.25-.35,2.25-1.05,3.01-.7,.76-1.63,1.13-2.81,1.13s-2.11-.38-2.81-1.13c-.7-.75-1.05-1.78-1.05-3.07v-.1Zm2.18,.15c0,.77,.15,1.37,.44,1.78,.29,.41,.71,.61,1.25,.61s.94-.2,1.24-.61c.3-.41,.44-1.05,.44-1.94,0-.76-.15-1.35-.44-1.77-.3-.42-.71-.63-1.25-.63s-.94,.21-1.24,.62c-.29,.42-.44,1.06-.44,1.93Z"/></g><g><path class="h" d="M50.87,29.32h-6.92v4.69h8.12v2.9h-11.73V19.4h11.7v2.92h-8.1v4.17h6.92v2.82Z"/><path class="h" d="M63.26,32.31c0-.68-.24-1.2-.72-1.57-.48-.36-1.35-.75-2.6-1.15-1.25-.4-2.24-.8-2.97-1.2-1.99-1.07-2.98-2.52-2.98-4.34,0-.94,.27-1.79,.8-2.53,.53-.74,1.3-1.32,2.3-1.74,1-.42,2.12-.62,3.36-.62s2.36,.23,3.34,.68c.98,.45,1.74,1.09,2.28,1.92,.54,.83,.81,1.76,.81,2.81h-3.6c0-.8-.25-1.42-.76-1.87-.5-.44-1.21-.67-2.13-.67s-1.57,.19-2.05,.56c-.49,.37-.73,.86-.73,1.47,0,.57,.29,1.05,.86,1.43,.57,.38,1.42,.74,2.53,1.08,2.05,.62,3.54,1.38,4.48,2.29,.94,.91,1.41,2.05,1.41,3.41,0,1.51-.57,2.7-1.72,3.56-1.15,.86-2.69,1.29-4.63,1.29-1.35,0-2.57-.25-3.68-.74s-1.95-1.17-2.53-2.02-.87-1.85-.87-2.98h3.62c0,1.93,1.15,2.9,3.46,2.9,.86,0,1.53-.17,2.01-.52s.72-.84,.72-1.46Z"/><path class="h" d="M83.05,31.07c-.14,1.88-.83,3.36-2.08,4.45-1.25,1.08-2.91,1.62-4.96,1.62-2.24,0-4.01-.75-5.29-2.26-1.29-1.51-1.93-3.58-1.93-6.22v-1.07c0-1.68,.3-3.16,.89-4.45,.59-1.28,1.44-2.26,2.54-2.95,1.1-.68,2.38-1.03,3.84-1.03,2.02,0,3.64,.54,4.88,1.62,1.23,1.08,1.95,2.6,2.14,4.55h-3.6c-.09-1.13-.4-1.95-.94-2.46-.54-.51-1.36-.76-2.47-.76-1.2,0-2.1,.43-2.7,1.29-.6,.86-.9,2.2-.92,4.01v1.32c0,1.89,.29,3.27,.86,4.15,.57,.87,1.48,1.31,2.71,1.31,1.11,0,1.94-.25,2.49-.76s.86-1.3,.94-2.36h3.6Z"/><path class="h" d="M99.79,28.55c0,1.72-.3,3.23-.91,4.53-.61,1.3-1.48,2.3-2.61,3-1.13,.7-2.43,1.06-3.9,1.06s-2.74-.35-3.88-1.05c-1.14-.7-2.02-1.69-2.64-2.99-.62-1.29-.94-2.78-.95-4.46v-.87c0-1.72,.31-3.24,.93-4.55s1.5-2.31,2.63-3.02c1.13-.7,2.43-1.05,3.89-1.05s2.75,.35,3.89,1.05,2.01,1.71,2.63,3.02c.62,1.31,.93,2.82,.93,4.54v.78Zm-3.65-.79c0-1.83-.33-3.23-.99-4.18s-1.59-1.43-2.81-1.43-2.14,.47-2.8,1.41-.99,2.32-1,4.14v.85c0,1.79,.33,3.17,.99,4.16,.66,.99,1.6,1.48,2.84,1.48s2.14-.47,2.79-1.42,.98-2.33,.99-4.15v-.85Z"/><path class="h" d="M106.01,34h7.65v2.9h-11.26V19.4h3.6v14.6Z"/><path class="h" d="M125.84,33.29h-6.32l-1.2,3.6h-3.83l6.51-17.49h3.34l6.55,17.49h-3.83l-1.21-3.6Zm-5.35-2.92h4.37l-2.2-6.55-2.17,6.55Z"/></g><g><g><path class="f" d="M11.02,38.2s-2,1.21-5.26,1.21c-3.04,0-5.26-1.21-5.26-1.21V5.22s2.11-.91,5.26-.91c3.61,0,5.26,.91,5.26,.91V38.2Z"/><rect class="f" x="2.73" y="7.17" width="6.06" height="9.78"/></g><path class="h" d="M24.37,38.62s-2.42,1.38-6.38,1.38c-3.68,0-6.38-1.38-6.38-1.38V1.04s2.55-1.04,6.38-1.04c4.38,0,6.38,1.04,6.38,1.04V38.62Z"/><rect class="d" x="13.76" y="2.87" width="8.61" height="4.02"/><g><path class="e" d="M31.02,37.4h0c-2.77,0-5.01-2.25-5.01-5.01V5.83s2.01,1.88,5.01,1.88c2.8,0,5.01-1.88,5.01-1.88v26.55c0,2.77-2.25,5.01-5.01,5.01Z"/><path class="g" d="M36.7,2.87v30.17c0,3.15-2.55,5.7-5.7,5.7h0c-3.15,0-5.7-2.55-5.7-5.7V2.87"/><line class="e" x1="29.18" y1="7.48" x2="29.18" y2="25.8"/><line class="e" x1="31.02" y1="7.72" x2="31.02" y2="31.52"/><line class="e" x1="32.79" y1="7.48" x2="32.79" y2="22.45"/></g></g></g></g></g></svg>