<?xml version="1.0" encoding="UTF-8"?><svg xmlns="http://www.w3.org/2000/svg" viewBox="0 0 27.4 20"><defs><style>.d{fill:#3fa9f5;}</style></defs><g id="a"/><g id="b"><g id="c"><g><polygon class="d" points="0 4.21 0 17.76 8.14 10.98 0 4.21"/><path class="d" d="M25.23,0H2.16C1.1,0,.21,.78,.03,1.8L10.8,10.75l1.79,1.49c.61,.51,1.61,.51,2.22,0l1.89-1.57L27.36,1.8c-.18-1.02-1.07-1.8-2.13-1.8Z"/><polygon class="d" points="27.4 17.76 27.4 4.21 19.25 10.98 27.4 17.76"/><path class="d" d="M16.26,13.47l-1.46,1.21c-.61,.51-1.61,.51-2.22,0l-1.88-1.56-1.1-.91L.81,19.52c.37,.3,.84,.48,1.35,.48H25.23c.51,0,.98-.18,1.35-.48l-8.8-7.32-1.52,1.26Z"/></g></g></g></svg>