<?xml version="1.0" encoding="UTF-8"?><svg xmlns="http://www.w3.org/2000/svg" viewBox="0 0 13.71 20"><defs><style>.d{fill:#3fa9f5;}</style></defs><g id="a"/><g id="b"><g id="c"><g><path class="d" d="M9.08,6.95c0-1.23-1-2.22-2.22-2.22s-2.22,1-2.22,2.22,1,2.22,2.22,2.22,2.22-1,2.22-2.22Z"/><path class="d" d="M8.86,17.68c-.51,.54-.95,.97-1.26,1.26-.21,.2-.47,.31-.74,.31-.2,0-.49-.06-.79-.33-.3-.28-.73-.7-1.23-1.23-1.06,.22-1.77,.62-1.77,1.06,0,.69,1.69,1.26,3.77,1.26s3.77-.56,3.77-1.26c0-.45-.71-.84-1.77-1.06Z"/><path class="d" d="M5.62,17.55h0s.09,.09,.13,.13l.02,.02s.07,.07,.1,.1l.03,.03,.09,.09,.02,.02c.07,.07,.14,.14,.21,.21l.03,.03s.05,.04,.07,.06l.03,.03,.06,.06,.03,.03s.05,.05,.08,.07c.03,.03,.06,.05,.08,.07,0,0,.02,.01,.03,.02,.02,.01,.04,.02,.06,.03,.01,0,.02,0,.03,.01,.02,0,.03,.01,.05,.02,.01,0,.02,0,.04,0,.02,0,.03,0,.05,0h0s.03,0,.04,0c.01,0,.02,0,.03,0,.02,0,.03,0,.05-.01,.01,0,.02,0,.03-.01,.02,0,.03-.02,.05-.03h.02s.05-.05,.07-.07c.03-.02,.05-.05,.08-.08l.02-.02s.05-.05,.08-.07h.01c.1-.11,.21-.22,.33-.34h0c.12-.12,.25-.26,.39-.4h.01c1.97-2.04,5.62-6.36,5.62-10.47S10.49,0,6.85,0,0,3.18,0,7.1s3.65,8.42,5.62,10.45h0ZM3.17,6.95c0-2.04,1.65-3.69,3.69-3.69s3.69,1.65,3.69,3.69-1.65,3.69-3.69,3.69-3.69-1.65-3.69-3.69Z"/></g></g></g></svg>