<?xml version="1.0" encoding="UTF-8"?><svg xmlns="http://www.w3.org/2000/svg" viewBox="0 0 20 20"><defs><style>.d{fill:#3fa9f5;}</style></defs><g id="a"/><g id="b"><g id="c"><g><path class="d" d="M7.5,7.07c.2-.2,.48-.54,.63-.9,.51-1.24,.28-1.49,.28-1.49-.33-.72-1.05-1.68-1.99-2.62C5.46,1.12,4.5,.41,3.78,.07,3.78,.07,2.62-.29,1.74,.59c0,0,0,0,0,0h0c-.12,.12-.23,.25-.34,.37L7.5,7.07Z"/><path class="d" d="M19.93,16.22c-.33-.72-1.05-1.68-1.99-2.62-.94-.94-1.9-1.66-2.62-1.99,0,0-.24-.23-1.49,.28-.36,.15-.7,.43-.9,.63l6.1,6.1c.12-.1,.24-.22,.36-.34h0s.01,0,0-.01c.88-.88,.52-2.04,.52-2.04Z"/><path class="d" d="M12.28,13.38c-.19,.26-.5,.37-.86,.37-1.11,0-2.77-.99-3.47-1.69-.93-.93-2.38-3.55-1.33-4.33,.06-.04,.12-.07,.18-.11L.86,1.67C-.04,3.03,0,4.11,0,4.11,0,4.11-.15,9.04,5.4,14.6c5.26,5.26,9.96,5.4,10.45,5.4h.06c.15,0,1.17-.03,2.42-.86l-5.94-5.94c-.04,.06-.08,.12-.11,.18Z"/></g></g></g></svg>